<svg xmlns="http://www.w3.org/2000/svg" viewBox="0 0 800 400">
  <defs>
    <linearGradient id="fus" x1="0%" y1="0%" x2="0%" y2="100%">
      <stop offset="0%" stop-color="#e2e8f0"/><stop offset="100%" stop-color="#cbd5e1"/>
    </linearGradient>
    <linearGradient id="cargo" x1="0%" y1="0%" x2="0%" y2="100%">
      <stop offset="0%" stop-color="#475569"/><stop offset="100%" stop-color="#1e293b"/>
    </linearGradient>
  </defs>
  <text x="400" y="25" text-anchor="middle" font-family="Arial" font-size="16" font-weight="bold" fill="#0c4a6e">Aircraft Cross-Section - Dangerous Goods Stowage</text>
  <ellipse cx="400" cy="210" rx="350" ry="160" fill="url(#fus)" stroke="#64748b" stroke-width="2"/>
  <rect x="80" y="200" width="640" height="6" fill="#64748b"/>
  <rect x="100" y="80" width="600" height="120" rx="10" fill="#0ea5e9" opacity="0.1" stroke="#0ea5e9" stroke-width="1.5" stroke-dasharray="5,3"/>
  <text x="400" y="100" text-anchor="middle" font-family="Arial" font-size="12" font-weight="bold" fill="#0369a1">PASSENGER CABIN</text>
  <text x="400" y="115" text-anchor="middle" font-family="Arial" font-size="9" fill="#64748b">No Dangerous Goods (except passenger provisions)</text>
  <g fill="#0ea5e9" opacity="0.6">
    <rect x="130" y="140" width="30" height="25" rx="3"/><rect x="180" y="140" width="30" height="25" rx="3"/>
    <rect x="230" y="140" width="30" height="25" rx="3"/><rect x="540" y="140" width="30" height="25" rx="3"/>
    <rect x="590" y="140" width="30" height="25" rx="3"/><rect x="640" y="140" width="30" height="25" rx="3"/>
  </g>
  <rect x="80" y="280" width="640" height="6" fill="#64748b"/>
  <rect x="100" y="210" width="280" height="70" rx="8" fill="url(#cargo)" opacity="0.8"/>
  <text x="240" y="235" text-anchor="middle" font-family="Arial" font-size="11" font-weight="bold" fill="#ffffff">FWD CARGO HOLD</text>
  <text x="240" y="250" text-anchor="middle" font-family="Arial" font-size="9" fill="#e2e8f0">DG permitted (segregated)</text>
  <rect x="420" y="210" width="280" height="70" rx="8" fill="url(#cargo)" opacity="0.8"/>
  <text x="560" y="235" text-anchor="middle" font-family="Arial" font-size="11" font-weight="bold" fill="#ffffff">AFT CARGO HOLD</text>
  <text x="560" y="250" text-anchor="middle" font-family="Arial" font-size="9" fill="#e2e8f0">Magnetised material (AFT only)</text>
  <g>
    <rect x="130" y="255" width="25" height="20" rx="2" fill="#dc2626" stroke="#0f172a" stroke-width="0.5"/>
    <polygon points="142.5,258 147,263 138,263" fill="#eab308"/>
    <rect x="165" y="258" width="22" height="17" rx="2" fill="#f59e0b" stroke="#0f172a" stroke-width="0.5"/>
    <text x="176" y="270" text-anchor="middle" font-size="6" fill="#0f172a" font-weight="bold">ICE</text>
    <rect x="195" y="255" width="25" height="20" rx="2" fill="#7c3aed" stroke="#0f172a" stroke-width="0.5"/>
    <text x="207.5" y="268" text-anchor="middle" font-size="6" fill="#ffffff" font-weight="bold">RRY</text>
  </g>
  <g>
    <rect x="450" y="255" width="25" height="20" rx="2" fill="#ea580c" stroke="#0f172a" stroke-width="0.5"/>
    <text x="462.5" y="268" text-anchor="middle" font-size="6" fill="#0f172a" font-weight="bold">RSB</text>
    <rect x="485" y="258" width="22" height="17" rx="2" fill="#dc2626" stroke="#0f172a" stroke-width="0.5"/>
    <text x="496" y="270" text-anchor="middle" font-size="6" fill="#ffffff" font-weight="bold">RFL</text>
  </g>
</svg>