<svg xmlns="http://www.w3.org/2000/svg" viewBox="0 0 900 300">
  <text x="450" y="20" text-anchor="middle" font-family="Arial" font-size="14" font-weight="bold" fill="#0c4a6e">Interactive Cabin Layout - Click zones to explore</text>
  <path d="M 50 150 Q 50 50 150 40 L 750 40 Q 850 50 850 150 Q 850 250 750 260 L 150 260 Q 50 250 50 150 Z" fill="#e2e8f0" stroke="#64748b" stroke-width="2"/>
  <path d="M 50 150 Q 50 80 120 70 L 120 230 Q 50 220 50 150 Z" fill="#0c4a6e" opacity="0.7"/>
  <text x="85" y="155" text-anchor="middle" font-family="Arial" font-size="10" font-weight="bold" fill="#ffffff">COCKPIT</text>
  <rect x="130" y="35" width="30" height="15" rx="3" fill="#16a34a"/>
  <text x="145" y="28" text-anchor="middle" font-family="Arial" font-size="8" font-weight="bold" fill="#15803d">L1</text>
  <rect x="130" y="250" width="30" height="15" rx="3" fill="#16a34a"/>
  <text x="145" y="278" text-anchor="middle" font-family="Arial" font-size="8" font-weight="bold" fill="#15803d">R1</text>
  <rect x="430" y="35" width="30" height="15" rx="3" fill="#16a34a"/>
  <text x="445" y="28" text-anchor="middle" font-family="Arial" font-size="8" font-weight="bold" fill="#15803d">L2</text>
  <rect x="430" y="250" width="30" height="15" rx="3" fill="#16a34a"/>
  <text x="445" y="278" text-anchor="middle" font-family="Arial" font-size="8" font-weight="bold" fill="#15803d">R2</text>
  <rect x="700" y="35" width="30" height="15" rx="3" fill="#f59e0b"/>
  <text x="715" y="28" text-anchor="middle" font-family="Arial" font-size="8" font-weight="bold" fill="#b45309">L3</text>
  <rect x="700" y="250" width="30" height="15" rx="3" fill="#f59e0b"/>
  <text x="715" y="278" text-anchor="middle" font-family="Arial" font-size="8" font-weight="bold" fill="#b45309">R3</text>
  <rect x="170" y="50" width="50" height="35" rx="3" fill="#0ea5e9" opacity="0.3" stroke="#0ea5e9"/>
  <text x="195" y="72" text-anchor="middle" font-family="Arial" font-size="8" fill="#0369a1">GALLEY</text>
  <rect x="170" y="215" width="50" height="35" rx="3" fill="#0ea5e9" opacity="0.3" stroke="#0ea5e9"/>
  <text x="195" y="237" text-anchor="middle" font-family="Arial" font-size="8" fill="#0369a1">GALLEY</text>
  <rect x="660" y="50" width="30" height="35" rx="3" fill="#7c3aed" opacity="0.3" stroke="#7c3aed"/>
  <text x="675" y="72" text-anchor="middle" font-family="Arial" font-size="7" fill="#7c3aed">LAV</text>
  <rect x="660" y="215" width="30" height="35" rx="3" fill="#7c3aed" opacity="0.3" stroke="#7c3aed"/>
  <text x="675" y="237" text-anchor="middle" font-family="Arial" font-size="7" fill="#7c3aed">LAV</text>
  <g fill="#0ea5e9" opacity="0.5">    <rect x="240" y="70" width="22" height="16" rx="2"/>
    <rect x="300" y="70" width="22" height="16" rx="2"/>
    <rect x="360" y="70" width="22" height="16" rx="2"/>
    <rect x="420" y="70" width="22" height="16" rx="2"/>
    <rect x="480" y="70" width="22" height="16" rx="2"/>
    <rect x="540" y="70" width="22" height="16" rx="2"/>
    <rect x="240" y="92" width="22" height="16" rx="2"/>
    <rect x="300" y="92" width="22" height="16" rx="2"/>
    <rect x="360" y="92" width="22" height="16" rx="2"/>
    <rect x="420" y="92" width="22" height="16" rx="2"/>
    <rect x="480" y="92" width="22" height="16" rx="2"/>
    <rect x="540" y="92" width="22" height="16" rx="2"/>
    <rect x="240" y="114" width="22" height="16" rx="2"/>
    <rect x="300" y="114" width="22" height="16" rx="2"/>
    <rect x="360" y="114" width="22" height="16" rx="2"/>
    <rect x="420" y="114" width="22" height="16" rx="2"/>
    <rect x="480" y="114" width="22" height="16" rx="2"/>
    <rect x="540" y="114" width="22" height="16" rx="2"/>
    <rect x="240" y="136" width="22" height="16" rx="2"/>
    <rect x="300" y="136" width="22" height="16" rx="2"/>
    <rect x="360" y="136" width="22" height="16" rx="2"/>
    <rect x="420" y="136" width="22" height="16" rx="2"/>
    <rect x="480" y="136" width="22" height="16" rx="2"/>
    <rect x="540" y="136" width="22" height="16" rx="2"/>
    <rect x="240" y="158" width="22" height="16" rx="2"/>
    <rect x="300" y="158" width="22" height="16" rx="2"/>
    <rect x="360" y="158" width="22" height="16" rx="2"/>
    <rect x="420" y="158" width="22" height="16" rx="2"/>
    <rect x="480" y="158" width="22" height="16" rx="2"/>
    <rect x="540" y="158" width="22" height="16" rx="2"/>
    <rect x="240" y="180" width="22" height="16" rx="2"/>
    <rect x="300" y="180" width="22" height="16" rx="2"/>
    <rect x="360" y="180" width="22" height="16" rx="2"/>
    <rect x="420" y="180" width="22" height="16" rx="2"/>
    <rect x="480" y="180" width="22" height="16" rx="2"/>
    <rect x="540" y="180" width="22" height="16" rx="2"/>
    <rect x="240" y="202" width="22" height="16" rx="2"/>
    <rect x="300" y="202" width="22" height="16" rx="2"/>
    <rect x="360" y="202" width="22" height="16" rx="2"/>
    <rect x="420" y="202" width="22" height="16" rx="2"/>
    <rect x="480" y="202" width="22" height="16" rx="2"/>
    <rect x="540" y="202" width="22" height="16" rx="2"/>
    <rect x="240" y="224" width="22" height="16" rx="2"/>
    <rect x="300" y="224" width="22" height="16" rx="2"/>
    <rect x="360" y="224" width="22" height="16" rx="2"/>
    <rect x="420" y="224" width="22" height="16" rx="2"/>
    <rect x="480" y="224" width="22" height="16" rx="2"/>
    <rect x="540" y="224" width="22" height="16" rx="2"/>
  </g>
  <rect x="170" y="40" width="530" height="8" fill="#64748b" opacity="0.4"/>
  <rect x="170" y="252" width="530" height="8" fill="#64748b" opacity="0.4"/>
  <g>
    <circle cx="195" cy="120" r="6" fill="#dc2626" stroke="#ffffff" stroke-width="1.5"/>
    <circle cx="675" cy="120" r="6" fill="#dc2626" stroke="#ffffff" stroke-width="1.5"/>
    <circle cx="195" cy="180" r="6" fill="#dc2626" stroke="#ffffff" stroke-width="1.5"/>
    <circle cx="675" cy="180" r="6" fill="#dc2626" stroke="#ffffff" stroke-width="1.5"/>
  </g>
</svg>